<svg id="Ebene_1" data-name="Ebene 1" xmlns="http://www.w3.org/2000/svg" xmlns:xlink="http://www.w3.org/1999/xlink" viewBox="0 0 112.12 54.11"><defs><style>.cls-1{fill:url(#Unbenannter_Verlauf_35);}.cls-2{fill:url(#Unbenannter_Verlauf_57);}.cls-3{fill:url(#Unbenannter_Verlauf_58);}</style><linearGradient id="Unbenannter_Verlauf_35" x1="46.38" y1="124.86" x2="87.45" y2="124.86" gradientUnits="userSpaceOnUse"><stop offset="0" stop-color="#009640"/><stop offset="1" stop-color="#e30613"/></linearGradient><linearGradient id="Unbenannter_Verlauf_57" x1="82.71" y1="124.86" x2="131.84" y2="124.86" gradientUnits="userSpaceOnUse"><stop offset="0" stop-color="#e30613"/><stop offset="1" stop-color="#009640"/></linearGradient><linearGradient id="Unbenannter_Verlauf_58" x1="157.71" y1="102.83" x2="136.59" y2="123.96" xlink:href="#Unbenannter_Verlauf_57"/></defs><path class="cls-1" d="M46.38,124.92A24.89,24.89,0,0,1,70.9,100.31c6.15.08,11.6,2.52,16.55,7.29L82,115.07c-3.22-3.16-7.09-5.1-11.16-5.1A15.32,15.32,0,0,0,56,125c0,8.41,7.5,14.92,14.79,14.92,4.34,0,8.09-2.32,11.22-5.39l5.45,7.67c-4.16,4.13-9.23,7.24-16.38,7.24A24.77,24.77,0,0,1,46.38,124.92Z" transform="translate(-46.38 -95.29)"/><path class="cls-2" d="M82.71,125a24.57,24.57,0,1,1,24.52,24.46A24.65,24.65,0,0,1,82.71,125Zm39.52-.06a15,15,0,1,0-15,14.91A15,15,0,0,0,122.23,124.89Z" transform="translate(-46.38 -95.29)"/><path class="cls-3" d="M158.5,120.16h-3.17v6.76H149v-6.76H132.79l10.76-24.87,6.66,0-8,18.52H149v-8.73h6.31v8.73h3.17Z" transform="translate(-46.38 -95.29)"/></svg>